REM DIRINDEX 1\2\4,1\2\5,1\2\6,1\3\7,1\3\8,1\3\9,1\3\10
REM DIRNAME folder01,folder02,folder03,folder04,folder05,folder06,folder07,folder08,folder09,folder10
TITLE ""
FILE "b_49.mp3" MP3
  TRACK 01 AUDIO
    TITLE "0:"
    INDEX 01 00:00:00
  TRACK 02 AUDIO
    TITLE "10:cjc058_4373"
    INDEX 01 00:00:15
  TRACK 03 AUDIO
    TITLE "0:"
    INDEX 01 00:02:57
  TRACK 04 AUDIO
    TITLE "7:cjc058_4374"
    INDEX 01 00:03:29
  TRACK 05 AUDIO
    TITLE "0:"
    INDEX 01 00:04:54
  TRACK 06 AUDIO
    TITLE "8:cjc058_4375"
    INDEX 01 00:05:12
  TRACK 07 AUDIO
    TITLE "0:"
    INDEX 01 00:06:63
  TRACK 08 AUDIO
    TITLE "9:cjc058_4376"
    INDEX 01 00:07:33
  TRACK 09 AUDIO
    TITLE "0:"
    INDEX 01 00:10:08
  TRACK 10 AUDIO
    TITLE "7:cjc058_4377"
    INDEX 01 00:11:17
  TRACK 11 AUDIO
    TITLE "0:"
    INDEX 01 00:12:60
  TRACK 12 AUDIO
    TITLE "8:cjc058_4378"
    INDEX 01 00:13:18
  TRACK 13 AUDIO
    TITLE "0:"
    INDEX 01 00:15:32
  TRACK 14 AUDIO
    TITLE "9:cjc058_4379"
    INDEX 01 00:16:02
  TRACK 15 AUDIO
    TITLE "0:"
    INDEX 01 00:22:05
  TRACK 16 AUDIO
    TITLE "7:cjc058_4380"
    INDEX 01 00:23:12
  TRACK 17 AUDIO
    TITLE "0:"
    INDEX 01 00:24:65
  TRACK 18 AUDIO
    TITLE "8:cjc058_4381"
    INDEX 01 00:25:25
  TRACK 19 AUDIO
    TITLE "0:"
    INDEX 01 00:26:58
  TRACK 20 AUDIO
    TITLE "9:cjc058_4382"
    INDEX 01 00:27:28
  TRACK 21 AUDIO
    TITLE "0:"
    INDEX 01 00:30:57
  TRACK 22 AUDIO
    TITLE "7:cjc058_4383"
    INDEX 01 00:31:67
  TRACK 23 AUDIO
    TITLE "0:"
    INDEX 01 00:33:22
  TRACK 24 AUDIO
    TITLE "8:cjc058_4384"
    INDEX 01 00:33:56
  TRACK 25 AUDIO
    TITLE "0:"
    INDEX 01 00:34:67
  TRACK 26 AUDIO
    TITLE "9:cjc058_4385"
    INDEX 01 00:35:37
  TRACK 27 AUDIO
    TITLE "0:"
    INDEX 01 00:39:45
  TRACK 28 AUDIO
    TITLE "7:cjc058_4386"
    INDEX 01 00:40:56
  TRACK 29 AUDIO
    TITLE "0:"
    INDEX 01 00:42:18
  TRACK 30 AUDIO
    TITLE "8:cjc058_4387"
    INDEX 01 00:42:51
  TRACK 31 AUDIO
    TITLE "0:"
    INDEX 01 00:44:69
  TRACK 32 AUDIO
    TITLE "9:cjc058_4388"
    INDEX 01 00:45:37
  TRACK 33 AUDIO
    TITLE "0:"
    INDEX 01 00:49:72
  TRACK 34 AUDIO
    TITLE "7:cjc058_4389"
    INDEX 01 00:51:07
  TRACK 35 AUDIO
    TITLE "0:"
    INDEX 01 00:52:51
  TRACK 36 AUDIO
    TITLE "8:cjc058_4390"
    INDEX 01 00:53:09
  TRACK 37 AUDIO
    TITLE "0:"
    INDEX 01 00:55:08
  TRACK 38 AUDIO
    TITLE "9:cjc058_4391"
    INDEX 01 00:55:53
  TRACK 39 AUDIO
    TITLE "0:"
    INDEX 01 00:59:16
  TRACK 40 AUDIO
    TITLE "7:cjc058_4392"
    INDEX 01 01:00:23
  TRACK 41 AUDIO
    TITLE "0:"
    INDEX 01 01:01:68
  TRACK 42 AUDIO
    TITLE "8:cjc058_4393"
    INDEX 01 01:02:26
  TRACK 43 AUDIO
    TITLE "0:"
    INDEX 01 01:04:00
  TRACK 44 AUDIO
    TITLE "9:cjc058_4394"
    INDEX 01 01:04:47
  TRACK 45 AUDIO
    TITLE "0:"
    INDEX 01 01:08:27
  TRACK 46 AUDIO
    TITLE "7:cjc058_4395"
    INDEX 01 01:09:36
  TRACK 47 AUDIO
    TITLE "0:"
    INDEX 01 01:10:71
  TRACK 48 AUDIO
    TITLE "8:cjc058_4396"
    INDEX 01 01:11:31
  TRACK 49 AUDIO
    TITLE "0:"
    INDEX 01 01:13:16
  TRACK 50 AUDIO
    TITLE "9:cjc058_4397"
    INDEX 01 01:13:63
  TRACK 51 AUDIO
    TITLE "0:"
    INDEX 01 01:19:03
  TRACK 52 AUDIO
    TITLE "7:cjc058_4398"
    INDEX 01 01:20:10
  TRACK 53 AUDIO
    TITLE "0:"
    INDEX 01 01:22:01
  TRACK 54 AUDIO
    TITLE "8:cjc058_4399"
    INDEX 01 01:22:35
  TRACK 55 AUDIO
    TITLE "0:"
    INDEX 01 01:25:43
  TRACK 56 AUDIO
    TITLE "9:cjc058_4400"
    INDEX 01 01:26:13
  TRACK 57 AUDIO
    TITLE "0:"
    INDEX 01 01:31:30
  TRACK 58 AUDIO
    TITLE "7:cjc058_4401"
    INDEX 01 01:32:39
  TRACK 59 AUDIO
    TITLE "0:"
    INDEX 01 01:34:14
  TRACK 60 AUDIO
    TITLE "8:cjc058_4402"
    INDEX 01 01:34:48
  TRACK 61 AUDIO
    TITLE "0:"
    INDEX 01 01:37:11
  TRACK 62 AUDIO
    TITLE "9:cjc058_4403"
    INDEX 01 01:37:52
  TRACK 63 AUDIO
    TITLE "0:"
    INDEX 01 01:41:09
  TRACK 64 AUDIO
    TITLE "7:cjc058_4404"
    INDEX 01 01:42:18
  TRACK 65 AUDIO
    TITLE "0:"
    INDEX 01 01:43:58
  TRACK 66 AUDIO
    TITLE "8:cjc058_4405"
    INDEX 01 01:44:17
  TRACK 67 AUDIO
    TITLE "0:"
    INDEX 01 01:46:66
  TRACK 68 AUDIO
    TITLE "9:cjc058_4406"
    INDEX 01 01:47:31
  TRACK 69 AUDIO
    TITLE "0:"
    INDEX 01 01:49:59
  TRACK 70 AUDIO
    TITLE "7:cjc058_4407"
    INDEX 01 01:50:68
  TRACK 71 AUDIO
    TITLE "0:"
    INDEX 01 01:52:08
  TRACK 72 AUDIO
    TITLE "8:cjc058_4408"
    INDEX 01 01:52:42
  TRACK 73 AUDIO
    TITLE "0:"
    INDEX 01 01:53:63
  TRACK 74 AUDIO
    TITLE "9:cjc058_4409"
    INDEX 01 01:54:33
  TRACK 75 AUDIO
    TITLE "0:"
    INDEX 01 01:57:51
  TRACK 76 AUDIO
    TITLE "7:cjc058_4410"
    INDEX 01 01:58:60
  TRACK 77 AUDIO
    TITLE "0:"
    INDEX 01 02:00:43
  TRACK 78 AUDIO
    TITLE "8:cjc058_4411"
    INDEX 01 02:01:01
  TRACK 79 AUDIO
    TITLE "0:"
    INDEX 01 02:02:18
  TRACK 80 AUDIO
    TITLE "9:cjc058_4412"
    INDEX 01 02:02:64
  TRACK 81 AUDIO
    TITLE "0:"
    INDEX 01 02:06:44
  TRACK 82 AUDIO
    TITLE "7:cjc058_4413"
    INDEX 01 02:07:51
  TRACK 83 AUDIO
    TITLE "0:"
    INDEX 01 02:09:24
  TRACK 84 AUDIO
    TITLE "8:cjc058_4414"
    INDEX 01 02:09:58
  TRACK 85 AUDIO
    TITLE "0:"
    INDEX 01 02:12:33
  TRACK 86 AUDIO
    TITLE "9:cjc058_4415"
    INDEX 01 02:13:03
  TRACK 87 AUDIO
    TITLE "0:"
    INDEX 01 02:16:03
  TRACK 88 AUDIO
    TITLE "7:cjc058_4416"
    INDEX 01 02:17:08
  TRACK 89 AUDIO
    TITLE "0:"
    INDEX 01 02:18:25
  TRACK 90 AUDIO
    TITLE "8:cjc058_4417"
    INDEX 01 02:18:59
  TRACK 91 AUDIO
    TITLE "0:"
    INDEX 01 02:20:03
  TRACK 92 AUDIO
    TITLE "9:cjc058_4418"
    INDEX 01 02:20:50
  TRACK 93 AUDIO
    TITLE "0:"
    INDEX 01 02:25:74
  TRACK 94 AUDIO
    TITLE "7:cjc058_4419"
    INDEX 01 02:27:07
  TRACK 95 AUDIO
    TITLE "0:"
    INDEX 01 02:28:24
  TRACK 96 AUDIO
    TITLE "8:cjc058_4420"
    INDEX 01 02:28:57
  TRACK 97 AUDIO
    TITLE "0:"
    INDEX 01 02:32:27
  TRACK 98 AUDIO
    TITLE "9:cjc058_4421"
    INDEX 01 02:32:72
  TRACK 99 AUDIO
    TITLE "0:"
    INDEX 01 02:35:59
  TRACK 100 AUDIO
    TITLE "7:cjc058_4422"
    INDEX 01 02:36:66
  TRACK 101 AUDIO
    TITLE "0:"
    INDEX 01 02:38:12
  TRACK 102 AUDIO
    TITLE "8:cjc058_4423"
    INDEX 01 02:38:46
  TRACK 103 AUDIO
    TITLE "0:"
    INDEX 01 02:40:66
  TRACK 104 AUDIO
    TITLE "9:cjc058_4424"
    INDEX 01 02:41:36
  TRACK 105 AUDIO
    TITLE "0:"
    INDEX 01 02:44:03
